<svg width="335" height="657" viewBox="0 0 335 657" fill="none" xmlns="http://www.w3.org/2000/svg">
<path d="M20.1556 0.362915C6.64078 54.5663 13.394 80.1984 26.4747 106.597C70.4284 163.323 185.736 148.037 237.895 133.303C307.354 107.518 326.354 177.812 327.171 216.182C316.968 310.48 182.191 296.018 165.297 297.219C59.619 304.736 45.6822 308.905 28.1679 323.498C-10.6809 355.868 -9.87994 437.465 49.1839 454.143C77.7152 463.176 146.821 471.573 174.618 471.266C250.34 470.43 290.054 472.905 295.937 474.295C337.652 484.149 335.838 535.421 331.096 563.354C323.248 602.399 281.402 602.061 261.127 598.685C196.899 587.989 170.718 608.921 165.813 628.566V656.363" stroke="#4F6B4F" stroke-width="3"/>
</svg>
